<?xml version="1.0" encoding="UTF-8" standalone="no"?>
<svg width="25px" height="25px" viewBox="0 0 25 25" version="1.1" xmlns="http://www.w3.org/2000/svg" xmlns:xlink="http://www.w3.org/1999/xlink" xmlns:sketch="http://www.bohemiancoding.com/sketch/ns">
    <!-- Generator: Sketch 3.4.2 (15855) - http://www.bohemiancoding.com/sketch -->
    <title>bell</title>
    <desc>Created with Sketch.</desc>
    <defs></defs>
    <g id="Page-1" stroke="none" stroke-width="1" fill="none" fill-rule="evenodd" sketch:type="MSPage">
        <g id="bell" sketch:type="MSArtboardGroup" fill="#C5C5C5">
            <g sketch:type="MSLayerGroup" transform="translate(7.000000, 7.000000)" id="Shape">
                <g sketch:type="MSShapeGroup">
                    <path d="M9.125,5.278 C7.485,2.528 6.742,1.368 4.125,1.611 C3.583,1.435 3.782,0.821 2.875,1.001 C2.518,1.287 3.06,1.628 2.25,2.223 C0.6,3.635 0.766,5.005 1.625,8.332 C1.962,9.645 0.753,9.713 1,10.78 C1.58,12.017 4.157,12.424 6.625,11.39 C9.592,10.42 11.305,8.43 11,7.724 C10.477,6.126 9.51,6.862 9.125,5.28 L9.125,5.278 Z M6.625,10.168 C4.359,11.158 2.35,10.648 2.25,10.168 C2.118,10.03 3.054,8.73 6,7.72 C8.646,6.75 10.207,7.117 10.375,7.72 C10.465,7.81 9.251,9.424 6.625,10.165 L6.625,10.168 Z M5.375,8.333 C4.265,8.919 3.422,9.413 2.875,9.556 C3.26,10.19 3.98,10.272 4.75,10.166 C5.612,9.694 6.174,8.95 6,8.334 C5.95,8.348 5.945,8.342 6,8.334 C5.792,8.381 5.638,8.432 5.375,8.334 L5.375,8.333 Z"></path>
                </g>
            </g>
        </g>
    </g>
</svg>