<svg width="18" height="18" viewBox="0 0 18 18" xmlns="http://www.w3.org/2000/svg"><title>Shape</title><path d="M.99 4.59c0 1.493.498 2.57 1.48 3.204.807.52 1.74.598 2.227.598.118 0 .213-.006.28-.01 0 0-.155 1.004.59 1.996H5.53c-1.29 0-5.493.27-5.493 3.727C.04 17.62 3.9 17.8 4.674 17.8c.06 0 .097-.002.097-.002.008 0 .063.002.158.002.497 0 1.782-.062 2.975-.643 1.548-.75 2.333-2.06 2.333-3.885 0-1.764-1.196-2.814-2.07-3.582-.532-.47-.993-.873-.993-1.266 0-.4.337-.7.762-1.082.69-.615 1.34-1.492 1.34-3.15 0-1.457-.19-2.436-1.355-3.057.12-.062.55-.107.763-.137.63-.086 1.554-.184 1.554-.7V.2h-4.6C5.594.202.99.372.99 4.59zM8.412 13.6c.088 1.406-1.115 2.443-2.922 2.574-1.834.135-3.344-.69-3.432-2.096-.043-.676.254-1.336.835-1.863.59-.533 1.398-.863 2.278-.928.105-.007.208-.013.31-.013 1.7 0 2.85 1 2.933 2.325zm-1.2-9.976c.45 1.588-.23 3.246-1.317 3.553-.125.034-.253.05-.384.05-.994 0-1.98-1.005-2.345-2.392-.204-.776-.187-1.458.047-2.112.23-.645.643-1.078 1.163-1.225.125-.034.254-.052.385-.052 1.2 0 1.972.498 2.45 2.178zM15 7V4h-2v3h-3v2h3v3h2V9h3V7h-3z" fill="#504353" fill-rule="evenodd"/></svg>