<?xml version="1.0" encoding="UTF-8" standalone="no"?>
<svg width="25px" height="25px" viewBox="0 0 25 25" version="1.1" xmlns="http://www.w3.org/2000/svg" xmlns:xlink="http://www.w3.org/1999/xlink" xmlns:sketch="http://www.bohemiancoding.com/sketch/ns">
    <!-- Generator: Sketch 3.4.2 (15855) - http://www.bohemiancoding.com/sketch -->
    <title>linkedin</title>
    <desc>Created with Sketch.</desc>
    <defs></defs>
    <g id="Page-1" stroke="none" stroke-width="1" fill="none" fill-rule="evenodd" sketch:type="MSPage">
        <g id="linkedin" sketch:type="MSArtboardGroup" fill="#3F3242">
            <g sketch:type="MSLayerGroup" transform="translate(4.000000, 3.000000)" id="Shape">
                <g sketch:type="MSShapeGroup">
                    <path d="M4,2.096 C4,3.158 3.29,4.072 2,4.072 C0.784,4.072 0,3.21 0,2.148 C0,1.058 0.76,0.096 2,0.096 C3.24,0.096 3.976,1.006 4,2.096 L4,2.096 Z M0,18.096 L0,5.096 L4,5.096 L4,18.096 L0,18.096 L0,18.096 Z M6,9.54 C6,7.995 5.95,6.704 5.898,5.59 L9.492,5.59 L9.67,7.31 L9.746,7.31 C10.252,6.5 11.492,5.31 13.568,5.31 C16.1,5.312 18,7.007 18,10.654 L18,18.096 L14,18.096 L14,11.236 C14,9.641 13.393,8.426 12,8.426 C10.938,8.426 10.406,9.286 10.127,9.994 C10.025,10.248 10,10.602 10,10.957 L10,18.097 L6,18.097 L6,9.54 L6,9.54 Z"></path>
                </g>
            </g>
        </g>
    </g>
</svg>