<?xml version="1.0" encoding="UTF-8" standalone="no"?>
<svg width="18px" height="19px" viewBox="0 0 18 19" version="1.1" xmlns="http://www.w3.org/2000/svg" xmlns:xlink="http://www.w3.org/1999/xlink" xmlns:sketch="http://www.bohemiancoding.com/sketch/ns">
    <!-- Generator: Sketch 3.4 (15575) - http://www.bohemiancoding.com/sketch -->
    <title>Shape</title>
    <desc>Created with Sketch.</desc>
    <defs></defs>
    <g id="Production" stroke="none" stroke-width="1" fill="none" fill-rule="evenodd" sketch:type="MSPage">
        <g id="Jobs-description-Copy" sketch:type="MSArtboardGroup" transform="translate(-844.000000, -458.000000)" fill="#3F3242">
            <g id="Group" sketch:type="MSLayerGroup" transform="translate(843.000000, 382.000000)">
                <path d="M5,78.09625 C5,79.15825 4.29,80.07225 2.999,80.07225 C1.784,80.07225 1,79.21025 1,78.14825 C1,77.05825 1.76,76.09625 3,76.09625 C4.24,76.09625 4.976,77.00625 5,78.09625 L5,78.09625 Z M1,94.09625 L1,81.09625 L5,81.09625 L5,94.09625 L1,94.09625 Z M7,85.54025 C7,83.99525 6.949,82.70425 6.898,81.58925 L10.492,81.58925 L10.67,83.31225 L10.746,83.31225 C11.252,82.50125 12.492,81.31225 14.568,81.31225 C17.1,81.31225 19,83.00725 19,86.65425 L19,94.09625 L15,94.09625 L15,87.23525 C15,85.64125 14.393,84.42525 13,84.42525 C11.938,84.42525 11.406,85.28525 11.127,85.99425 C11.025,86.24825 11,86.60225 11,86.95725 L11,94.09625 L7,94.09625 L7,85.54025 Z" id="Shape" sketch:type="MSShapeGroup"></path>
            </g>
        </g>
    </g>
</svg>