<?xml version="1.0" encoding="UTF-8" standalone="no"?>
<svg width="25px" height="25px" viewBox="0 0 25 25" version="1.1" xmlns="http://www.w3.org/2000/svg" xmlns:xlink="http://www.w3.org/1999/xlink" xmlns:sketch="http://www.bohemiancoding.com/sketch/ns">
    <!-- Generator: Sketch 3.4.2 (15855) - http://www.bohemiancoding.com/sketch -->
    <title>user-account</title>
    <desc>Created with Sketch.</desc>
    <defs></defs>
    <g id="Page-1" stroke="none" stroke-width="1" fill="none" fill-rule="evenodd" sketch:type="MSPage">
        <g id="user-account" sketch:type="MSArtboardGroup">
            <g sketch:type="MSLayerGroup" transform="translate(2.000000, 5.000000)" id="Shape-Copy-+-Triangle-8">
                <g sketch:type="MSShapeGroup">
                    <g id="Group">
                        <path d="M5.23,1.565 C4.44,2.175 4.228,3.145 4.267,3.659 C4.317,4.289 4.44,5.109 4.44,5.109 C4.44,5.109 4.196,5.245 4.196,5.799 C4.281,7.186 4.726,6.587 4.819,7.196 C5.039,8.663 5.544,8.401 5.544,9.202 C5.544,10.535 5.014,11.158 3.364,11.897 C1.708,12.64 0,13.574 0,15.19 L0,16 L14,16 L14,15.19 C14,13.574 12.29,12.64 10.634,11.9 C8.984,11.16 8.454,10.538 8.454,9.204 C8.454,8.404 8.958,8.664 9.18,7.198 C9.273,6.588 9.718,7.188 9.805,5.8 C9.805,5.247 9.56,5.11 9.56,5.11 C9.56,5.11 9.683,4.29 9.732,3.66 C9.782,3 9.422,1.59 7.942,1.157 C7.684,0.882 7.509,0.444 8.306,0.005 C6.564,-0.08 6.158,0.868 5.231,1.565 L5.23,1.565 Z" id="Shape" stroke="#4A4A4A" stroke-width="0.8"></path>
                        <path d="M16,10 L22,10 L19,13 L16,10 L16,10 Z" id="Shape" fill="#A59C93"></path>
                    </g>
                </g>
            </g>
        </g>
    </g>
</svg>