<?xml version="1.0" encoding="UTF-8" standalone="no"?>
<svg width="10px" height="11px" viewBox="0 0 10 11" version="1.1" xmlns="http://www.w3.org/2000/svg" xmlns:xlink="http://www.w3.org/1999/xlink" xmlns:sketch="http://www.bohemiancoding.com/sketch/ns">
    <!-- Generator: Sketch 3.4 (15575) - http://www.bohemiancoding.com/sketch -->
    <title>Shape</title>
    <desc>Created with Sketch.</desc>
    <defs></defs>
    <g id="Production" stroke="none" stroke-width="1" fill="none" fill-rule="evenodd" sketch:type="MSPage">
        <g id="Jobs-index" sketch:type="MSArtboardGroup" transform="translate(-144.000000, -515.000000)" fill="#C5C5C5">
            <g id="JOB" sketch:type="MSLayerGroup" transform="translate(52.000000, 512.000000)">
                <g id="Shape-+-NEW-Copy-4" transform="translate(92.000000, 2.000000)" sketch:type="MSShapeGroup">
                    <path d="M8.125,5.27777778 C6.4836366,2.52728593 5.74211559,1.36908069 3.125,1.61111111 C2.58346117,1.43432294 2.78228383,0.819803093 1.875,1 C1.51807179,1.28581915 2.06014491,1.62694291 1.25,2.22222222 C-0.4007545,3.63516144 -0.233818489,5.0046273 0.625,8.33333333 C0.962243646,9.64366182 -0.246948288,9.71076813 4.61852778e-14,10.7777778 C0.580854257,12.0147515 3.15679571,12.4217389 5.625,11.3888889 C8.59190713,10.4178698 10.304408,8.42891329 10,7.72222222 C9.47660546,6.12430855 8.51000219,6.85999256 8.125,5.27777778 L8.125,5.27777778 Z M5.625,10.1666667 C3.3593692,11.1569941 1.34963188,10.6487424 1.25,10.1666667 C1.11841758,10.0317513 2.05398496,8.73048277 5,7.72222222 C7.64596882,6.75154533 9.20650781,7.11861599 9.375,7.72222222 C9.46607263,7.81190495 8.25141007,9.4261748 5.625,10.1666667 L5.625,10.1666667 Z M4.375,8.33333333 C3.26575535,8.91914831 2.42196661,9.41219494 1.875,9.55555556 C2.25979161,10.1904184 2.98030342,10.2717338 3.75,10.1666667 C4.61162833,9.69336322 5.17355573,8.94835316 5,8.33333333 C4.9485454,8.34650415 4.94495481,8.34077771 5,8.33333333 C4.79175628,8.38029015 4.63795933,8.43125549 4.375,8.33333333 L4.375,8.33333333 Z" id="Shape"></path>
                </g>
            </g>
        </g>
    </g>
</svg>