<svg width="10" height="11" viewBox="0 0 10 11" xmlns="http://www.w3.org/2000/svg"><title>Shape</title><path d="M8.125 4.278c-1.64-2.75-2.383-3.91-5-3.667-.542-.176-.343-.79-1.25-.61-.357.286.185.627-.625 1.222C-.4 2.635-.234 4.005.625 7.332.962 8.645-.247 8.713 0 9.78c.58 1.237 3.157 1.644 5.625.61 2.967-.97 4.68-2.96 4.375-3.666-.523-1.598-1.49-.862-1.875-2.444zm-2.5 4.89c-2.266.99-4.275.48-4.375 0C1.118 9.03 2.054 7.73 5 6.72c2.646-.97 4.207-.603 4.375 0 .09.09-1.124 1.704-3.75 2.445zm-1.25-1.835c-1.11.586-1.953 1.08-2.5 1.223.385.634 1.105.716 1.875.61C4.612 8.694 5.174 7.95 5 7.334c-.05.014-.055.008 0 0-.208.047-.362.098-.625 0z" fill="#C5C5C5" fill-rule="evenodd"/></svg>