<?xml version="1.0" encoding="UTF-8" standalone="no"?>
<svg width="18px" height="12px" viewBox="0 0 18 12" version="1.1" xmlns="http://www.w3.org/2000/svg" xmlns:xlink="http://www.w3.org/1999/xlink" xmlns:sketch="http://www.bohemiancoding.com/sketch/ns">
    <!-- Generator: Sketch 3.4 (15575) - http://www.bohemiancoding.com/sketch -->
    <title>Shape Copy</title>
    <desc>Created with Sketch.</desc>
    <defs></defs>
    <g id="Production" stroke="none" stroke-width="1" fill="none" fill-rule="evenodd" sketch:type="MSPage">
        <g id="Jobs-description-Copy" sketch:type="MSArtboardGroup" transform="translate(-955.000000, -1632.000000)" fill="#3F3242" opacity="0.4">
            <g id="Line-Copy-2-+-Group-+-TAGGED-WITH-+-Sales,-Marketing-+-Shape" sketch:type="MSLayerGroup" transform="translate(32.000000, 1601.000000)">
                <g id="Group" transform="translate(571.000000, 26.000000)" sketch:type="MSShapeGroup">
                    <path d="M352.574,6.286 C353.062,6.548 359.822,10.18 360.074,10.315 C360.326,10.45 360.652,10.514 360.98,10.514 C361.308,10.514 361.634,10.45 361.886,10.315 C362.138,10.18 368.898,6.548 369.386,6.286 C369.875,6.023 370.337,5 369.44,5 L352.521,5 C351.624,5 352.086,6.023 352.574,6.286 L352.574,6.286 Z M369.613,8.489 C369.058,8.778 362.226,12.338 361.886,12.516 C361.546,12.694 361.308,12.715 360.98,12.715 C360.652,12.715 360.414,12.694 360.074,12.516 C359.734,12.338 352.941,8.777 352.386,8.488 C351.996,8.284 352,8.523 352,8.707 L352,16 C352,16.42 352.566,17 353,17 L369,17 C369.434,17 370,16.42 370,16 L370,8.708 C370,8.524 370.004,8.285 369.613,8.489 L369.613,8.489 Z" id="Shape-Copy"></path>
                </g>
            </g>
        </g>
    </g>
</svg>