<svg width="20" height="20" viewBox="0 0 20 20" xmlns="http://www.w3.org/2000/svg"><title>Shape</title><path d="M9.6.4C4.307.4 0 4.707 0 10c0 5.293 4.306 9.6 9.6 9.6s9.6-4.307 9.6-9.6c0-5.293-4.306-9.6-9.6-9.6zm8.19 9.6c0 1.873-.637 3.6-1.697 4.98-.3-.234-.62-.867-.32-1.523.304-.66.383-2.188.313-2.783-.066-.594-.375-2.025-1.214-2.04-.838-.01-1.413-.288-1.91-1.282-1.034-2.068 1.938-2.465.905-3.61-.29-.32-1.783 1.323-2.002-.868-.014-.157.135-.392.336-.636 3.245 1.09 5.59 4.157 5.59 7.762zM8.475 1.893c-.196.382-.713.537-1.027.824-.685.62-.98.533-1.347 1.127-.37.594-1.567 1.45-1.567 1.88 0 .43.604.935.906.837.302-.1 1.1-.093 1.567.07.468.167 3.913.333 2.815 3.245-.348.926-1.873.77-2.28 2.303-.06.225-.27 1.186-.284 1.5-.024.486.345 2.318-.124 2.318-.47 0-1.738-1.64-1.738-1.936 0-.297-.328-1.338-.328-2.23 0-.89-1.518-.877-1.518-2.062 0-1.068.823-1.6.638-2.113-.18-.51-1.627-.527-2.23-.59 1.053-2.73 3.53-4.758 6.516-5.172zM7.026 17.77c.49-.26.54-.596.987-.613.51-.023.925-.2 1.5-.326.51-.11 1.423-.628 2.226-.694.677-.055 2.014.035 2.374.69-1.295.86-2.848 1.362-4.514 1.362-.9 0-1.765-.15-2.575-.418z" fill="#3F3242" fill-rule="evenodd"/></svg>