<?xml version="1.0" encoding="UTF-8" standalone="no"?>
<svg width="18px" height="18px" viewBox="0 0 18 18" version="1.1" xmlns="http://www.w3.org/2000/svg" xmlns:xlink="http://www.w3.org/1999/xlink" xmlns:sketch="http://www.bohemiancoding.com/sketch/ns">
    <!-- Generator: Sketch 3.4 (15575) - http://www.bohemiancoding.com/sketch -->
    <title>Shape</title>
    <desc>Created with Sketch.</desc>
    <defs></defs>
    <g id="Production" stroke="none" stroke-width="1" fill="none" fill-rule="evenodd" sketch:type="MSPage">
        <g id="Jobs-description-Copy" sketch:type="MSArtboardGroup" transform="translate(-831.000000, -1628.000000)" fill="#504353">
            <g id="Line-Copy-2-+-Group-+-TAGGED-WITH-+-Sales,-Marketing-+-Shape" sketch:type="MSLayerGroup" transform="translate(32.000000, 1601.000000)">
                <g id="Group" transform="translate(571.000000, 26.000000)" sketch:type="MSShapeGroup">
                    <path d="M228.989,5.589 C228.989,7.083 229.488,8.161 230.471,8.794 C231.277,9.314 232.211,9.392 232.697,9.392 C232.815,9.392 232.91,9.386 232.976,9.382 C232.976,9.382 232.822,10.386 233.566,11.378 L233.532,11.378 C232.243,11.378 228.039,11.647 228.039,15.105 C228.039,18.621 231.9,18.8 232.675,18.8 C232.736,18.8 232.772,18.798 232.772,18.798 C232.78,18.798 232.835,18.8 232.93,18.8 C233.427,18.8 234.712,18.738 235.905,18.157 C237.453,17.407 238.238,16.098 238.238,14.272 C238.238,12.508 237.042,11.458 236.169,10.69 C235.636,10.221 235.175,9.817 235.175,9.424 C235.175,9.024 235.512,8.723 235.937,8.342 C236.626,7.727 237.276,6.85 237.276,5.192 C237.276,3.735 237.087,2.756 235.922,2.135 C236.043,2.073 236.473,2.028 236.685,1.998 C237.316,1.912 238.239,1.814 238.239,1.299 L238.239,1.2 L233.64,1.2 C233.594,1.202 228.989,1.372 228.989,5.589 L228.989,5.589 Z M236.413,14.602 C236.501,16.008 235.298,17.045 233.491,17.176 C231.656,17.311 230.146,16.485 230.058,15.08 C230.015,14.404 230.312,13.744 230.893,13.217 C231.482,12.684 232.291,12.354 233.171,12.289 C233.275,12.283 233.378,12.277 233.481,12.277 C235.18,12.278 236.33,13.276 236.413,14.602 L236.413,14.602 Z M235.212,4.626 C235.663,6.214 234.982,7.872 233.896,8.179 C233.771,8.214 233.643,8.231 233.512,8.231 C232.518,8.231 231.533,7.225 231.167,5.838 C230.963,5.062 230.98,4.38 231.214,3.726 C231.443,3.081 231.857,2.648 232.377,2.501 C232.502,2.466 232.631,2.448 232.762,2.448 C233.962,2.448 234.734,2.946 235.212,4.626 L235.212,4.626 Z M243,8 L243,5 L241,5 L241,8 L238,8 L238,10 L241,10 L241,13 L243,13 L243,10 L246,10 L246,8 L243,8 L243,8 Z" id="Shape"></path>
                </g>
            </g>
        </g>
    </g>
</svg>