<svg width="16" height="18" viewBox="0 0 16 18" xmlns="http://www.w3.org/2000/svg"><title>Shape Copy</title><path d="M6.23 2.565c-.79.61-1.002 1.58-.963 2.094.05.63.173 1.45.173 1.45s-.244.136-.244.69c.085 1.387.53.788.623 1.397.22 1.467.725 1.205.725 2.006 0 1.333-.53 1.956-2.18 2.695C2.708 13.64 1 14.574 1 16.19V17h14v-.81c0-1.616-1.71-2.55-3.366-3.29-1.65-.74-2.18-1.362-2.18-2.696 0-.8.504-.54.726-2.006.093-.61.538-.01.625-1.398 0-.553-.245-.69-.245-.69s.123-.82.172-1.45c.05-.66-.31-2.07-1.79-2.503-.258-.275-.433-.713.364-1.152-1.742-.085-2.148.863-3.075 1.56z" stroke="#4A4A4A" stroke-width=".8" fill="none" fill-rule="evenodd"/></svg>