<?xml version="1.0" encoding="UTF-8" standalone="no"?>
<svg width="20px" height="15px" viewBox="0 0 20 15" version="1.1" xmlns="http://www.w3.org/2000/svg" xmlns:xlink="http://www.w3.org/1999/xlink" xmlns:sketch="http://www.bohemiancoding.com/sketch/ns">
    <!-- Generator: Sketch 3.4 (15575) - http://www.bohemiancoding.com/sketch -->
    <title>Shape</title>
    <desc>Created with Sketch.</desc>
    <defs></defs>
    <g id="Production" stroke="none" stroke-width="1" fill="none" fill-rule="evenodd" sketch:type="MSPage">
        <g id="Jobs-description-Copy" sketch:type="MSArtboardGroup" transform="translate(-843.000000, -424.000000)" fill="#3F3242">
            <g id="Group" sketch:type="MSLayerGroup" transform="translate(843.000000, 382.000000)">
                <path d="M17.317,45.722 C17.325,45.884 17.328,46.048 17.328,46.21 C17.328,51.2 13.531,56.952 6.588,56.952 C4.455,56.952 2.472,56.327 0.801,55.255 C1.097,55.29 1.397,55.308 1.701,55.308 C3.471,55.308 5.098,54.704 6.389,53.693 C4.738,53.662 3.343,52.572 2.863,51.072 C3.093,51.115 3.33,51.138 3.573,51.138 C3.918,51.138 4.252,51.093 4.568,51.007 C2.841,50.659 1.54,49.134 1.54,47.304 L1.54,47.257 C2.049,47.54 2.632,47.71 3.25,47.73 C2.237,47.052 1.57,45.898 1.57,44.587 C1.57,43.896 1.756,43.247 2.082,42.689 C3.943,44.974 6.726,46.476 9.863,46.634 C9.799,46.357 9.766,46.07 9.766,45.773 C9.766,43.689 11.455,42 13.54,42 C14.626,42 15.607,42.457 16.296,43.191 C17.155,43.021 17.963,42.707 18.693,42.275 C18.411,43.156 17.812,43.896 17.033,44.363 C17.797,44.271 18.523,44.07 19.201,43.769 C18.695,44.527 18.055,45.191 17.317,45.722 L17.317,45.722 Z" id="Shape" sketch:type="MSShapeGroup"></path>
            </g>
        </g>
    </g>
</svg>