<?xml version="1.0" encoding="UTF-8" standalone="no"?>
<svg width="16px" height="18px" viewBox="0 0 16 18" version="1.1" xmlns="http://www.w3.org/2000/svg" xmlns:xlink="http://www.w3.org/1999/xlink" xmlns:sketch="http://www.bohemiancoding.com/sketch/ns">
    <!-- Generator: Sketch 3.4 (15575) - http://www.bohemiancoding.com/sketch -->
    <title>Shape</title>
    <desc>Created with Sketch.</desc>
    <defs></defs>
    <g id="Production" stroke="none" stroke-width="1" fill="none" fill-rule="evenodd" sketch:type="MSPage">
        <g id="Jobs-description-Copy" sketch:type="MSArtboardGroup" transform="translate(-367.000000, -1516.000000)" fill="#504353">
            <path d="M379.65,1523.512 C377.37,1518.605 376.184,1516.741 372.459,1516.819 C371.132,1516.846 371.45,1515.857 370.438,1516.232 C369.428,1516.607 370.295,1517.156 369.261,1518.005 C366.359,1520.388 366.626,1522.592 367.972,1527.845 C368.539,1530.058 366.605,1530.166 367.37,1532.31 C367.929,1533.874 372.049,1534.529 376.395,1532.917 C380.742,1531.304 383.481,1528.103 382.922,1526.539 C382.157,1524.394 380.611,1525.578 379.65,1523.512 L379.65,1523.512 Z M375.924,1531.595 C372.042,1533.035 368.852,1532.189 368.717,1531.812 C368.485,1531.162 369.97,1528.996 374.408,1527.349 C378.846,1525.702 381.323,1526.313 381.582,1527.038 C381.735,1527.467 379.807,1530.154 375.924,1531.595 L375.924,1531.595 Z M374.676,1528.101 C372.647,1528.854 371.237,1529.715 370.323,1530.49 C370.966,1531.074 372.17,1531.216 373.369,1530.771 C374.896,1530.206 375.835,1528.905 375.464,1527.867 C375.459,1527.854 375.453,1527.844 375.448,1527.831 C375.197,1527.913 374.94,1528.002 374.676,1528.101 L374.676,1528.101 Z" id="Shape" sketch:type="MSShapeGroup"></path>
        </g>
    </g>
</svg>