<?xml version="1.0" encoding="UTF-8" standalone="no"?>
<svg width="25px" height="25px" viewBox="0 0 25 25" version="1.1" xmlns="http://www.w3.org/2000/svg" xmlns:xlink="http://www.w3.org/1999/xlink" xmlns:sketch="http://www.bohemiancoding.com/sketch/ns">
    <!-- Generator: Sketch 3.4.2 (15855) - http://www.bohemiancoding.com/sketch -->
    <title>email</title>
    <desc>Created with Sketch.</desc>
    <defs></defs>
    <g id="Page-1" stroke="none" stroke-width="1" fill="none" fill-rule="evenodd" sketch:type="MSPage">
        <g id="email" sketch:type="MSArtboardGroup" fill="#3F3242" opacity="0.4">
            <g sketch:type="MSLayerGroup" transform="translate(4.000000, 7.000000)" id="Shape-Copy">
                <g sketch:type="MSShapeGroup">
                    <path d="M0.574,1.286 L8.074,5.316 C8.326,5.45 8.652,5.514 8.98,5.514 C9.308,5.514 9.634,5.45 9.886,5.314 C10.138,5.18 16.898,1.548 17.386,1.286 C17.876,1.023 18.336,8.8817842e-16 17.44,8.8817842e-16 L0.52,8.8817842e-16 C-0.376,8.8817842e-16 0.086,1.023 0.574,1.286 L0.574,1.286 Z M17.614,3.489 C17.058,3.777 10.226,7.337 9.886,7.515 C9.546,7.693 9.308,7.715 8.98,7.715 C8.652,7.715 8.414,7.693 8.074,7.515 C7.734,7.338 0.94,3.776 0.386,3.488 C-0.004,3.284 0,3.523 0,3.708 L0,11 C0,11.42 0.566,12 1,12 L17,12 C17.434,12 18,11.42 18,11 L18,3.708 C18,3.524 18.004,3.285 17.613,3.488 L17.614,3.489 Z" id="Shape"></path>
                </g>
            </g>
        </g>
    </g>
</svg>