<?xml version="1.0" encoding="UTF-8" standalone="no"?>
<svg width="18px" height="18px" viewBox="0 0 18 18" version="1.1" xmlns="http://www.w3.org/2000/svg" xmlns:xlink="http://www.w3.org/1999/xlink" xmlns:sketch="http://www.bohemiancoding.com/sketch/ns">
    <!-- Generator: Sketch 3.4 (15575) - http://www.bohemiancoding.com/sketch -->
    <title>Shape</title>
    <desc>Created with Sketch.</desc>
    <defs></defs>
    <g id="Production" stroke="none" stroke-width="1" fill="none" fill-rule="evenodd" sketch:type="MSPage">
        <g id="Jobs-description-Copy" sketch:type="MSArtboardGroup" transform="translate(-791.000000, -1628.000000)" fill="#504353">
            <g id="Line-Copy-2-+-Group-+-TAGGED-WITH-+-Sales,-Marketing-+-Shape" sketch:type="MSLayerGroup" transform="translate(32.000000, 1601.000000)">
                <g id="Group" transform="translate(571.000000, 26.000000)" sketch:type="MSShapeGroup">
                    <path d="M204,1 L190,1 C188.9,1 188,1.9 188,3 L188,17 C188,18.101 188.9,19 190,19 L197,19 L197,12 L195,12 L195,9.525 L197,9.525 L197,7.475 C197,5.311 198.212,3.791 200.766,3.791 L202.569,3.793 L202.569,6.398 L201.372,6.398 C200.378,6.398 200,7.144 200,7.836 L200,9.526 L202.568,9.526 L202,12 L200,12 L200,19 L204,19 C205.1,19 206,18.101 206,17 L206,3 C206,1.9 205.1,1 204,1 L204,1 Z" id="Shape"></path>
                </g>
            </g>
        </g>
    </g>
</svg>