<?xml version="1.0" encoding="UTF-8" standalone="no"?>
<svg width="25px" height="25px" viewBox="0 0 25 25" version="1.1" xmlns="http://www.w3.org/2000/svg" xmlns:xlink="http://www.w3.org/1999/xlink" xmlns:sketch="http://www.bohemiancoding.com/sketch/ns">
    <!-- Generator: Sketch 3.4.2 (15855) - http://www.bohemiancoding.com/sketch -->
    <title>gplus</title>
    <desc>Created with Sketch.</desc>
    <defs></defs>
    <g id="Page-1" stroke="none" stroke-width="1" fill="none" fill-rule="evenodd" sketch:type="MSPage">
        <g id="gplus" sketch:type="MSArtboardGroup" fill="#504353">
            <g sketch:type="MSLayerGroup" transform="translate(4.000000, 4.000000)" id="Shape">
                <g sketch:type="MSShapeGroup">
                    <path d="M0.99,4.59 C0.99,6.083 1.488,7.16 2.47,7.794 C3.277,8.314 4.21,8.392 4.697,8.392 C4.815,8.392 4.91,8.386 4.977,8.382 C4.977,8.382 4.822,9.386 5.567,10.378 L5.53,10.378 C4.24,10.378 0.037,10.648 0.037,14.105 C0.04,17.62 3.9,17.8 4.674,17.8 C4.734,17.8 4.771,17.798 4.771,17.798 C4.779,17.798 4.834,17.8 4.929,17.8 C5.426,17.8 6.711,17.738 7.904,17.157 C9.452,16.407 10.237,15.097 10.237,13.272 C10.237,11.508 9.041,10.458 8.167,9.69 C7.635,9.22 7.174,8.817 7.174,8.424 C7.174,8.024 7.511,7.724 7.936,7.342 C8.626,6.727 9.276,5.85 9.276,4.192 C9.276,2.735 9.086,1.756 7.921,1.135 C8.041,1.073 8.471,1.028 8.684,0.998 C9.314,0.912 10.238,0.814 10.238,0.298 L10.238,0.2 L5.638,0.2 C5.594,0.202 0.99,0.372 0.99,4.59 L0.99,4.59 Z M8.412,13.6 C8.5,15.006 7.297,16.043 5.49,16.174 C3.656,16.309 2.146,15.484 2.058,14.078 C2.015,13.402 2.312,12.742 2.893,12.215 C3.483,11.682 4.291,11.352 5.171,11.287 C5.276,11.28 5.379,11.274 5.481,11.274 C7.181,11.274 8.331,12.274 8.414,13.599 L8.412,13.6 Z M7.212,3.624 C7.662,5.212 6.982,6.87 5.895,7.177 C5.77,7.211 5.642,7.227 5.511,7.227 C4.517,7.227 3.531,6.222 3.166,4.835 C2.962,4.059 2.979,3.377 3.213,2.723 C3.443,2.078 3.856,1.645 4.376,1.498 C4.501,1.464 4.63,1.446 4.761,1.446 C5.961,1.446 6.733,1.944 7.211,3.624 L7.212,3.624 Z M15,7 L15,4 L13,4 L13,7 L10,7 L10,9 L13,9 L13,12 L15,12 L15,9 L18,9 L18,7 L15,7 L15,7 Z"></path>
                </g>
            </g>
        </g>
    </g>
</svg>