<?xml version="1.0" encoding="UTF-8" standalone="no"?>
<svg width="16px" height="16px" viewBox="0 0 16 16" version="1.1" xmlns="http://www.w3.org/2000/svg" xmlns:xlink="http://www.w3.org/1999/xlink" xmlns:sketch="http://www.bohemiancoding.com/sketch/ns">
    <!-- Generator: Sketch 3.4 (15575) - http://www.bohemiancoding.com/sketch -->
    <title>Shape</title>
    <desc>Created with Sketch.</desc>
    <defs></defs>
    <g id="Production" stroke="none" stroke-width="1" fill="none" fill-rule="evenodd" sketch:type="MSPage">
        <g id="Jobs-index-Logged-in" sketch:type="MSArtboardGroup" transform="translate(-961.000000, -789.000000)" fill="#8EC617">
            <g id="Shape-+-RSS" sketch:type="MSLayerGroup" transform="translate(925.500000, 789.000000)">
                <path d="M35.801,-2.22044605e-14 L35.801,2.367 C42.887,2.367 48.631,8.113 48.631,15.199 L51,15.199 C51,6.805 44.195,-2.22044605e-14 35.801,-2.22044605e-14 L35.801,-2.22044605e-14 Z M35.801,4.737 L35.801,7.106 C40.27,7.106 43.894,10.729 43.894,15.2 L46.262,15.2 C46.262,9.422 41.578,4.737 35.801,4.737 L35.801,4.737 Z M38.07,10.659 C36.816,10.659 35.8,11.677 35.8,12.93 C35.8,14.183 36.816,15.2 38.07,15.2 C39.324,15.2 40.339,14.184 40.339,12.93 C40.339,11.676 39.324,10.659 38.07,10.659 L38.07,10.659 Z" id="Shape" sketch:type="MSShapeGroup"></path>
            </g>
        </g>
    </g>
</svg>