<svg width="20" height="15" viewBox="0 0 20 15" xmlns="http://www.w3.org/2000/svg"><title>Shape</title><path d="M17.317 3.722c.008.162.01.326.01.488 0 4.99-3.796 10.742-10.74 10.742-2.132 0-4.115-.625-5.786-1.697.297.035.597.053.9.053 1.77 0 3.398-.604 4.69-1.615-1.652-.03-3.047-1.12-3.527-2.62.23.042.467.065.71.065.345 0 .68-.045.995-.13C2.84 8.657 1.54 7.133 1.54 5.303v-.047c.51.283 1.092.453 1.71.473-1.013-.678-1.68-1.832-1.68-3.143 0-.69.186-1.34.512-1.898 1.86 2.284 4.644 3.786 7.78 3.944-.063-.277-.096-.564-.096-.86C9.766 1.688 11.456 0 13.54 0c1.086 0 2.067.457 2.756 1.19.86-.17 1.667-.483 2.397-.915-.282.88-.88 1.62-1.66 2.088.764-.092 1.49-.293 2.168-.594-.505.757-1.145 1.42-1.883 1.952z" fill="#3F3242" fill-rule="evenodd"/></svg>