<?xml version="1.0" encoding="UTF-8" standalone="no"?>
<svg width="23px" height="18px" viewBox="0 0 23 18" version="1.1" xmlns="http://www.w3.org/2000/svg" xmlns:xlink="http://www.w3.org/1999/xlink" xmlns:sketch="http://www.bohemiancoding.com/sketch/ns">
    <!-- Generator: Sketch 3.4 (15575) - http://www.bohemiancoding.com/sketch -->
    <title>Shape Copy + Triangle 8</title>
    <desc>Created with Sketch.</desc>
    <defs></defs>
    <g id="Production" stroke="none" stroke-width="1" fill="none" fill-rule="evenodd" sketch:type="MSPage">
        <g id="Post-job-1---Input" sketch:type="MSArtboardGroup" transform="translate(-884.000000, -17.000000)">
            <g id="Main-Nav-Logged-In" sketch:type="MSLayerGroup" transform="translate(0.000000, -2.000000)">
                <g id="Shape-Copy-+-Triangle-8" transform="translate(885.000000, 20.000000)" sketch:type="MSShapeGroup">
                    <path d="M5.23055556,1.56493581 C4.44033333,2.17616627 4.228,3.14394782 4.26688889,3.65896607 C4.31666667,4.28879216 4.43955556,5.10861714 4.43955556,5.10861714 C4.43955556,5.10861714 4.19611111,5.24606314 4.19611111,5.79908117 C4.28088889,7.18728578 4.72733333,6.58818292 4.81911111,7.19698785 C5.04,8.66361754 5.54477778,8.40247014 5.54477778,9.20289097 C5.54477778,10.5361172 5.01588889,11.1594752 3.36466667,11.8984496 C1.708,12.640658 0,13.5744823 0,15.1914941 L0,16 L14,16 L14,15.1914941 C14,13.5744823 12.2912222,12.640658 10.6337778,11.8992581 C8.98255556,11.1602837 8.45522222,10.5377342 8.45522222,9.20369948 C8.45522222,8.40327864 8.95844444,8.66442605 9.18011111,7.19779636 C9.27266667,6.58899142 9.71833333,7.18809429 9.80466667,5.79988967 C9.80466667,5.24687164 9.56044444,5.10942564 9.56044444,5.10942564 C9.56044444,5.10942564 9.68333333,4.28960067 9.73233333,3.65977458 C9.78288889,2.99922526 9.42277778,1.58919099 7.94344444,1.15664034 C7.68444444,0.881748334 7.50944444,0.444346647 8.30588889,0.00532794767 C6.56366667,-0.0795651709 6.15844444,0.868003734 5.23055556,1.56493581 L5.23055556,1.56493581 Z" id="Shape-Copy" stroke="#4A4A4A" stroke-width="0.799999952"></path>
                    <path d="M16,10 L22,10 L19,13 L16,10 Z" id="Triangle-8" fill="#A59C93"></path>
                </g>
            </g>
        </g>
    </g>
</svg>